<svg width="16" height="16" viewBox="0 0 16 16" fill="none" xmlns="http://www.w3.org/2000/svg">
    <path d="M7.3335 9.3334V14.6667H4.66683C4.1364 14.6667 3.62769 14.456 3.25262 14.0809C2.87754 13.7059 2.66683 13.1972 2.66683 12.6667V10.0001C2.66683 9.82325 2.73707 9.65369 2.86209 9.52866C2.98712 9.40364 3.15668 9.3334 3.3335 9.3334H7.3335ZM12.6668 9.3334C12.8436 9.3334 13.0132 9.40364 13.1382 9.52866C13.2633 9.65369 13.3335 9.82325 13.3335 10.0001V12.6667C13.3335 13.1972 13.1228 13.7059 12.7477 14.0809C12.3726 14.456 11.8639 14.6667 11.3335 14.6667H8.66683V9.3334H12.6668ZM11.0002 1.3334C11.3938 1.33332 11.7811 1.43284 12.126 1.62271C12.4709 1.81258 12.7621 2.08661 12.9725 2.41931C13.183 2.752 13.3059 3.13254 13.3297 3.52549C13.3535 3.91845 13.2775 4.31104 13.1088 4.66673H13.3335C13.6871 4.66673 14.0263 4.80721 14.2763 5.05726C14.5264 5.30731 14.6668 5.64644 14.6668 6.00007V6.66673C14.6668 7.02035 14.5264 7.35949 14.2763 7.60954C14.0263 7.85959 13.6871 8.00007 13.3335 8.00007H8.66683V4.66673H7.3335V8.00007H2.66683C2.31321 8.00007 1.97407 7.85959 1.72402 7.60954C1.47397 7.35949 1.3335 7.02035 1.3335 6.66673V6.00007C1.3335 5.64644 1.47397 5.30731 1.72402 5.05726C1.97407 4.80721 2.31321 4.66673 2.66683 4.66673H2.8915C2.74312 4.35427 2.66637 4.01263 2.66683 3.66673C2.66683 2.37807 3.7115 1.3334 4.98883 1.3334C6.15883 1.3134 7.19683 2.0614 7.9095 3.2894L8.00016 3.4514C8.68883 2.1754 9.70683 1.3754 10.8608 1.33473L11.0002 1.3334ZM5.00016 2.66673C4.73495 2.66673 4.48059 2.77209 4.29306 2.95963C4.10552 3.14716 4.00016 3.40152 4.00016 3.66673C4.00016 3.93195 4.10552 4.1863 4.29306 4.37384C4.48059 4.56138 4.73495 4.66673 5.00016 4.66673H7.0955C6.6015 3.39673 5.79616 2.6534 5.00016 2.66673ZM10.9888 2.66673C10.2022 2.6534 9.39883 3.3974 8.90483 4.66673H11.0002C11.2654 4.66523 11.5191 4.55843 11.7056 4.36983C11.8921 4.18123 11.996 3.92628 11.9945 3.66107C11.993 3.39585 11.8862 3.14209 11.6976 2.95562C11.509 2.76915 11.254 2.66523 10.9888 2.66673Z"
          fill="black" fill-opacity="0.2"/>
</svg>
